<svg xmlns="http://www.w3.org/2000/svg" width="1600" height="500" viewBox="0 0 1600 500" role="img" aria-labelledby="title desc">
  <title id="title">r-data-lineage-plotting</title><desc id="desc">Every figure should know where it came from.</desc>
  <defs><linearGradient id="bg" x1="0" y1="0" x2="1" y2="1"><stop offset="0%" stop-color="#0B3A28"/><stop offset="55%" stop-color="#0E6A46"/><stop offset="100%" stop-color="#2E9C68"/></linearGradient><linearGradient id="tile" x1="0" y1="0" x2="1" y2="1"><stop offset="0%" stop-color="#FFFFFF" stop-opacity="0.20"/><stop offset="100%" stop-color="#FFFFFF" stop-opacity="0.08"/></linearGradient><filter id="shadow" x="-30%" y="-30%" width="160%" height="160%"><feDropShadow dx="0" dy="12" stdDeviation="18" flood-color="#052317" flood-opacity="0.34"/></filter></defs>
  <rect width="1600" height="500" rx="36" fill="url(#bg)"/><circle cx="1475" cy="30" r="245" fill="#FFFFFF" opacity="0.045"/><circle cx="1400" cy="515" r="315" fill="#FFFFFF" opacity="0.035"/>
  <g transform="translate(100 98)" filter="url(#shadow)"><path d="M92 226V84" stroke="#B9F4D3" stroke-width="13" stroke-linecap="round"/><path d="M92 128C54 123 30 96 28 60c38 3 64 26 64 68zM92 162c40-5 66-31 68-68-40 4-66 30-68 68zM92 94C71 70 70 38 92 12c22 25 22 58 0 82z" fill="#8FE0B4"/><path d="M92 205c-35-4-59-27-64-59 34 2 59 23 64 59zM92 205c36-4 61-27 65-60-35 3-60 24-65 60z" fill="#69C997"/></g>
  <g font-family="Inter, Segoe UI, Arial, sans-serif" fill="#FFFFFF"><text x="320" y="155" font-size="64" font-weight="760">r-data-lineage-plotting</text><text x="322" y="215" font-size="30" font-weight="560" opacity="0.96">Every figure should know where it came from.</text><text x="322" y="268" font-size="23" opacity="0.78">Raw data → processing → analysis → plot object → figure → output</text></g>
  <g transform="translate(1015 105)" font-family="Inter, Segoe UI, Arial, sans-serif" fill="#FFFFFF">
    <path d="M74 56H142M214 56H282M354 56H422" stroke="#D9FBE7" stroke-width="4" opacity="0.75"/><path d="M139 50l10 6-10 6M279 50l10 6-10 6M419 50l10 6-10 6" fill="#D9FBE7"/>
    <g><rect width="116" height="112" rx="22" fill="url(#tile)"/><circle cx="58" cy="40" r="22" fill="#D9FBE7"/><text x="58" y="48" text-anchor="middle" fill="#126A48" font-size="23">●</text><text x="58" y="80" text-anchor="middle" font-size="18" font-weight="700">Raw</text><text x="58" y="101" text-anchor="middle" font-size="14" opacity="0.75">source</text></g>
    <g transform="translate(140 0)"><rect width="116" height="112" rx="22" fill="url(#tile)"/><circle cx="58" cy="40" r="22" fill="#D9FBE7"/><text x="58" y="48" text-anchor="middle" fill="#126A48" font-size="23">⌁</text><text x="58" y="80" text-anchor="middle" font-size="18" font-weight="700">Process</text><text x="58" y="101" text-anchor="middle" font-size="14" opacity="0.75">prepare</text></g>
    <g transform="translate(280 0)"><rect width="116" height="112" rx="22" fill="url(#tile)"/><circle cx="58" cy="40" r="22" fill="#D9FBE7"/><text x="58" y="48" text-anchor="middle" fill="#126A48" font-size="23">⚙</text><text x="58" y="80" text-anchor="middle" font-size="18" font-weight="700">Analyse</text><text x="58" y="101" text-anchor="middle" font-size="14" opacity="0.75">model</text></g>
    <g transform="translate(420 0)"><rect width="116" height="112" rx="22" fill="url(#tile)"/><circle cx="58" cy="40" r="22" fill="#D9FBE7"/><text x="58" y="48" text-anchor="middle" fill="#126A48" font-size="23">▣</text><text x="58" y="80" text-anchor="middle" font-size="18" font-weight="700">Figure</text><text x="58" y="101" text-anchor="middle" font-size="14" opacity="0.75">output</text></g>
    <path d="M58 150V196H478V150" fill="none" stroke="#D9FBE7" stroke-width="3" stroke-dasharray="8 8" opacity="0.55"/><rect x="188" y="184" width="160" height="54" rx="18" fill="#D9FBE7"/><text x="268" y="218" text-anchor="middle" font-size="18" font-weight="750" fill="#126A48">traceable lineage</text>
  </g>
  <g transform="translate(320 335)" font-family="Inter, Segoe UI, Arial" font-size="18" font-weight="650" fill="#FFFFFF"><g><rect width="112" height="46" rx="23" fill="#FFFFFF" opacity="0.14"/><text x="56" y="29" text-anchor="middle">R Data</text></g><g transform="translate(126 0)"><rect width="148" height="46" rx="23" fill="#FFFFFF" opacity="0.14"/><text x="74" y="29" text-anchor="middle">Data Lineage</text></g><g transform="translate(288 0)"><rect width="182" height="46" rx="23" fill="#FFFFFF" opacity="0.14"/><text x="91" y="29" text-anchor="middle">Scientific Plotting</text></g><g transform="translate(484 0)"><rect width="178" height="46" rx="23" fill="#FFFFFF" opacity="0.14"/><text x="89" y="29" text-anchor="middle">Reproducibility</text></g></g>
</svg>