<svg xmlns="http://www.w3.org/2000/svg" width="1600" height="500" viewBox="0 0 1600 500" role="img" aria-labelledby="title desc">
  <title id="title">r-data-lineage-plotting</title>
  <desc id="desc">Every figure should know where it came from.</desc>
  <defs>
    <linearGradient id="bg" x1="0" y1="0" x2="1" y2="1">
      <stop offset="0%" stop-color="#12372A"/>
      <stop offset="55%" stop-color="#2E7D5A"/>
      <stop offset="100%" stop-color="#63B58B"/>
    </linearGradient>
    <filter id="shadow" x="-20%" y="-20%" width="140%" height="140%">
      <feDropShadow dx="0" dy="10" stdDeviation="18" flood-color="#092117" flood-opacity="0.35"/>
    </filter>
  </defs>
  <rect width="1600" height="500" rx="36" fill="url(#bg)"/>
  <circle cx="1370" cy="75" r="230" fill="#FFFFFF" opacity="0.05"/>
  <circle cx="1450" cy="430" r="310" fill="#FFFFFF" opacity="0.04"/>
  <g transform="translate(1090 90)" stroke="#DDF7E9" stroke-width="5" fill="none" opacity="0.9">
    <path d="M50 70 L170 70 L280 150 L170 230 L280 310"/>
    <path d="M170 70 L170 230" opacity="0.6"/>
  </g>
  <g transform="translate(1090 90)" filter="url(#shadow)">
    <rect x="20" y="42" width="92" height="56" rx="18" fill="#F4FFF8"/><text x="66" y="78" text-anchor="middle" font-family="Inter, Segoe UI, Arial" font-size="19" font-weight="700" fill="#1D6B4C">RAW</text>
    <rect x="124" y="42" width="96" height="56" rx="18" fill="#F4FFF8"/><text x="172" y="78" text-anchor="middle" font-family="Inter, Segoe UI, Arial" font-size="19" font-weight="700" fill="#1D6B4C">PREP</text>
    <rect x="232" y="122" width="104" height="56" rx="18" fill="#F4FFF8"/><text x="284" y="158" text-anchor="middle" font-family="Inter, Segoe UI, Arial" font-size="19" font-weight="700" fill="#1D6B4C">MODEL</text>
    <rect x="124" y="202" width="96" height="56" rx="18" fill="#F4FFF8"/><text x="172" y="238" text-anchor="middle" font-family="Inter, Segoe UI, Arial" font-size="19" font-weight="700" fill="#1D6B4C">PLOT</text>
    <rect x="232" y="282" width="104" height="56" rx="18" fill="#F4FFF8"/><text x="284" y="318" text-anchor="middle" font-family="Inter, Segoe UI, Arial" font-size="19" font-weight="700" fill="#1D6B4C">RESULT</text>
  </g>
  <g font-family="Inter, Segoe UI, Arial, sans-serif" fill="#FFFFFF">
    <text x="120" y="195" font-size="68" font-weight="750">r-data-lineage-plotting</text>
    <text x="122" y="260" font-size="31" font-weight="500" opacity="0.92">Every figure should know where it came from.</text>
    <text x="122" y="330" font-size="24" opacity="0.78">Raw data · lineage · analysis · reproducible figures</text>
  </g>
  <g transform="translate(120 380)" font-family="Inter, Segoe UI, Arial, sans-serif" font-size="20" font-weight="600">
    <rect width="116" height="48" rx="24" fill="#FFFFFF" opacity="0.15"/><text x="58" y="31" text-anchor="middle" fill="#FFFFFF">R Data</text>
    <rect x="132" width="142" height="48" rx="24" fill="#FFFFFF" opacity="0.15"/><text x="203" y="31" text-anchor="middle" fill="#FFFFFF">Lineage</text>
    <rect x="290" width="168" height="48" rx="24" fill="#FFFFFF" opacity="0.15"/><text x="374" y="31" text-anchor="middle" fill="#FFFFFF">Reproducible</text>
  </g>
</svg>